<svg focusable="false" aria-hidden="true"
    width="141"
    height="91"
    viewBox="0 0 141 91"
    fill="none"
    xmlns="http://www.w3.org/2000/svg"
>
    <path
    fill-rule="evenodd"
    clip-rule="evenodd"
    d="M65.9967 76.3928C81.9087 85.0152 100.108 91.3485 118.151 90.1076C124.716 89.6568 130.794 87.7638 137.033 85.8818C137.47 85.7505 137.72 85.2865 137.589 84.8467C137.455 84.4068 136.991 84.1573 136.551 84.2908C130.432 86.1357 124.476 88.0068 118.037 88.4488C100.25 89.6721 82.3202 83.3739 66.6489 74.8566L66.7605 74.6049C67.9795 71.8759 67.2244 67.893 65.233 63.7132C62.3793 57.7213 57.0658 51.2829 52.2841 47.7268C50.1351 46.1292 48.0758 45.1138 46.3776 44.9015C45.0536 44.7352 43.9178 45.0328 43.0403 45.825C41.1714 47.5145 41.237 50.3966 42.7185 53.7383C45.8152 60.7281 54.9102 69.9326 59.8429 72.8848C61.3835 73.8061 62.9505 74.7121 64.5415 75.594C64.3401 76.0799 64.141 76.5548 63.9265 77.0078C63.3116 78.2968 62.5565 79.4238 61.1012 80.1963C58.8319 81.3977 56.1117 81.6056 53.328 81.2949C48.984 80.8069 44.4868 79.0408 41.1757 77.5242C22.7361 69.077 13.6039 54.4255 8.70619 39.7172C3.76256 24.8622 3.11479 9.93719 1.65074 1.13319C1.57633 0.680187 1.1474 0.375999 0.6944 0.450405C0.241398 0.524811 -0.0649794 0.953739 0.0116152 1.40674C1.48442 10.2676 2.15187 25.2889 7.13051 40.2424C12.1551 55.3425 21.5544 70.3638 40.482 79.0364C43.9309 80.6165 48.6185 82.4394 53.142 82.9471C56.2736 83.2973 59.3265 83.0172 61.8803 81.6647C64.1716 80.4502 65.082 78.555 65.9967 76.3928ZM65.187 74.0512L65.2439 73.9265C66.3097 71.5411 65.4737 68.0834 63.7317 64.4288C60.9896 58.671 55.8884 52.48 51.2906 49.0617C49.7149 47.8887 48.2071 47.0462 46.8809 46.6917C45.7867 46.4006 44.8369 46.4422 44.1563 47.0593C43.5108 47.6392 43.2547 48.438 43.2657 49.3681C43.2766 50.4601 43.6399 51.7141 44.2373 53.0643C47.2136 59.7806 55.9563 68.6218 60.6964 71.458C62.1692 72.3377 63.6661 73.2043 65.187 74.0512Z"
    fill="#424D79"
    />
    <path
    fill-rule="evenodd"
    clip-rule="evenodd"
    d="M139.142 83.3088C139.07 83.6656 138.827 84.1142 138.56 84.5935C137.926 85.7358 137.022 86.9526 136.619 87.5435C136.361 87.9242 136.462 88.4407 136.84 88.6989C137.221 88.9572 137.737 88.8587 137.996 88.4779C138.488 87.7536 139.69 86.1297 140.335 84.7839C140.681 84.0617 140.86 83.3942 140.821 82.9149C140.755 82.0987 140.11 81.5888 138.829 81.6194C137.315 81.6566 134.503 82.416 132.148 81.5034C131.721 81.3371 131.238 81.5516 131.074 81.9783C130.907 82.4072 131.12 82.8887 131.549 83.055C133.794 83.9238 136.411 83.5058 138.173 83.3308C138.508 83.2979 138.906 83.3023 139.142 83.3088Z"
    fill="#424D79"
    />
</svg>